HIERARCHY
ROOT root
{
	OFFSET 0.000000 0.000000 0.000000
	CHANNELS 6 Xposition Yposition Zposition Zrotation Yrotation Xrotation
	JOINT lhip
	{
		OFFSET 0.058581 -0.082280 -0.017664
		CHANNELS 3 Zrotation Yrotation Xrotation
		JOINT lknee
		{
			OFFSET 0.043451 -0.386469 0.008037
			CHANNELS 3 Zrotation Yrotation Xrotation
			JOINT lankle
			{
				OFFSET -0.014790 -0.426874 -0.037428
				CHANNELS 3 Zrotation Yrotation Xrotation
				JOINT ltoe
				{
					OFFSET 0.041054 -0.060286 0.122042
					CHANNELS 3 Zrotation Yrotation Xrotation
					End Site
					{
						OFFSET 0.000000 0.000000 0.000000
					}
				}
			}
		}
	}
	JOINT rhip
	{
		OFFSET -0.060310 -0.090513 -0.013543
		CHANNELS 3 Zrotation Yrotation Xrotation
		JOINT rknee
		{
			OFFSET -0.043257 -0.383688 -0.004843
			CHANNELS 3 Zrotation Yrotation Xrotation
			JOINT rankle
			{
				OFFSET 0.019056 -0.420046 -0.034562
				CHANNELS 3 Zrotation Yrotation Xrotation
				JOINT rtoe
				{
					OFFSET -0.034840 -0.062106 0.130323
					CHANNELS 3 Zrotation Yrotation Xrotation
					End Site
					{
						OFFSET 0.000000 0.000000 0.000000
					}
				}
			}
		}
	}
	JOINT lowerback
	{
		OFFSET 0.004439 0.124404 -0.038385
		CHANNELS 3 Zrotation Yrotation Xrotation
		JOINT upperback
		{
			OFFSET 0.004488 0.137956 0.026820
			CHANNELS 3 Zrotation Yrotation Xrotation
			JOINT chest
			{
				OFFSET -0.002265 0.056032 0.002855
				CHANNELS 3 Zrotation Yrotation Xrotation
				JOINT lowerneck
				{
					OFFSET -0.013390 0.211636 -0.033468
					CHANNELS 3 Zrotation Yrotation Xrotation
					JOINT upperneck
					{
						OFFSET 0.010113 0.088937 0.050410
						CHANNELS 3 Zrotation Yrotation Xrotation
						End Site
						{
							OFFSET 0.000000 0.000000 0.000000
						}
					}
				}
				JOINT lclavicle
				{
					OFFSET 0.071702 0.114000 -0.018898
					CHANNELS 3 Zrotation Yrotation Xrotation
					JOINT lshoulder
					{
						OFFSET 0.122921 0.045205 -0.019046
						CHANNELS 3 Zrotation Yrotation Xrotation
						JOINT lelbow
						{
							OFFSET 0.255332 -0.015649 -0.022946
							CHANNELS 3 Zrotation Yrotation Xrotation
							JOINT lwrist
							{
								OFFSET 0.265709 0.012698 -0.007375
								CHANNELS 3 Zrotation Yrotation Xrotation
								End Site
								{
									OFFSET 0.000000 0.000000 0.000000
								}
							}
						}
					}
				}
				JOINT rclavicle
				{
					OFFSET -0.082954 0.112472 -0.023707
					CHANNELS 3 Zrotation Yrotation Xrotation
					JOINT rshoulder
					{
						OFFSET -0.113228 0.046853 -0.008472
						CHANNELS 3 Zrotation Yrotation Xrotation
						JOINT relbow
						{
							OFFSET -0.260127 -0.014369 -0.031269
							CHANNELS 3 Zrotation Yrotation Xrotation
							JOINT rwrist
							{
								OFFSET -0.269108 0.006794 -0.006027
								CHANNELS 3 Zrotation Yrotation Xrotation
								End Site
								{
									OFFSET 0.000000 0.000000 0.000000
								}
							}
						}
					}
				}
			}
		}
	}
}
MOTION
Frames: 16
Frame Time: 0.033333
0.216281 0.163895 1.304826 98.850134 1.273307 76.715550 -2.157681 -1.058330 13.189997 -6.846231 -17.615476 28.499171 7.038330 11.482895 -26.594359 0.000000 -0.000000 0.000000 -3.058516 -3.191512 -19.504060 0.337745 -13.334600 24.195167 9.109404 -11.066892 19.349056 0.000000 -0.000000 0.000000 1.363567 -4.618190 17.398248 1.947038 -0.200067 -0.324870 0.371028 -2.215817 4.740727 -0.605366 2.804811 9.957620 -3.820415 3.976916 19.035311 -26.251357 5.455004 3.866739 -56.176659 -8.421788 9.262773 7.710031 -30.113678 8.461048 -5.902958 -5.161730 -6.333476 29.630184 -2.191437 4.003180 56.033604 3.444160 12.982193 -11.902741 17.543343 -10.708636 4.264556 3.074222 -7.611879 
0.237504 0.161349 1.290410 99.338972 0.988538 76.450521 -2.177718 -1.385876 12.100218 -8.395846 -16.985134 34.293913 7.139722 11.060218 -28.183948 0.000000 -0.000000 0.000000 -3.119695 -4.288840 -18.009059 0.436658 -13.354019 18.686705 8.698486 -11.779692 24.351604 0.000000 -0.000000 0.000000 1.170982 -4.047143 17.295890 1.759992 -0.254819 -0.382816 0.521452 -2.115159 5.075216 -1.094153 1.875830 10.245044 -3.504600 4.287630 18.970043 -26.511355 5.881796 3.866559 -55.593127 -8.612151 8.647297 7.996645 -30.883282 8.355721 -5.958334 -5.165555 -6.673319 29.739840 -2.787642 4.141598 56.156213 2.939853 13.059947 -11.896785 18.130416 -10.322367 4.026113 2.979068 -7.387760 
0.259748 0.157774 1.275553 99.973804 0.793471 75.896305 -1.846255 -2.354821 11.385345 -10.500072 -15.805024 40.322255 4.652737 9.496767 -30.245084 0.000000 -0.000000 0.000000 -3.238349 -4.327880 -15.594612 0.349556 -14.010629 13.576667 8.598979 -14.024275 28.707695 0.000000 -0.000000 0.000000 0.839539 -2.913427 17.559506 2.243546 -1.090473 0.077860 0.469417 -1.676227 4.408930 -1.992788 1.231734 10.901665 -2.114535 4.369831 19.108220 -26.651517 5.305835 3.767972 -55.354198 -7.419904 8.369864 8.513658 -31.277966 7.198633 -3.646300 -7.103035 -7.374982 29.765511 -2.212889 4.047884 56.661263 0.940538 13.363087 -12.614538 18.682570 -10.110499 2.844251 4.088716 -8.161951 
0.284983 0.153910 1.259219 101.021937 0.691460 75.859715 -0.948310 -2.070936 10.406298 -12.544944 -16.140811 46.172818 3.580265 7.954269 -31.491638 0.000000 -0.000000 0.000000 -3.431415 -5.260603 -13.947280 0.621980 -13.695304 11.088995 8.226798 -14.148177 31.373420 0.000000 -0.000000 0.000000 0.617340 -2.456842 16.896214 2.319722 -1.445441 0.152112 0.392388 -1.644740 4.288039 -2.145251 0.575179 11.869522 -1.656590 4.395110 18.984583 -26.929723 6.060908 3.583165 -54.892227 -6.926394 7.630320 8.940172 -31.978427 7.810763 -4.833507 -6.686684 -8.281033 29.702419 -2.846070 4.192516 56.956152 0.491010 13.053851 -12.311554 19.063952 -8.203486 2.994716 3.475310 -8.382815 
0.312264 0.148935 1.242390 101.933872 0.576171 76.048824 -0.050909 -1.692022 10.219167 -14.010768 -16.441013 50.464762 3.745244 6.930036 -32.852778 0.000000 -0.000000 0.000000 -3.516265 -6.195540 -13.012783 0.974510 -12.425509 11.680988 7.963316 -13.893724 32.336945 0.000000 -0.000000 0.000000 0.232879 -2.070568 15.758318 2.505631 -1.508671 0.196972 0.338664 -1.686824 4.342627 -1.973406 0.139037 12.390486 -1.565029 4.447872 19.226553 -27.219757 6.896005 3.545003 -54.469935 -6.860606 6.969055 8.755518 -31.478949 7.365962 -3.639509 -6.402162 -8.880317 29.959775 -3.539374 3.910884 57.007072 0.185114 13.082107 -12.282147 18.823063 -8.014256 3.114835 3.229481 -8.470308 
0.342704 0.143365 1.225572 102.447260 0.444772 76.028915 0.856703 -1.307028 11.165722 -15.031787 -16.579759 53.461285 3.527693 6.115682 -34.326899 0.000000 -0.000000 0.000000 -3.352035 -6.905088 -11.665822 1.594071 -10.557619 14.066644 7.546068 -13.086601 30.773166 0.000000 -0.000000 0.000000 -0.049063 -1.767796 14.525544 2.550884 -1.467449 0.637226 0.270022 -1.453236 3.830134 -1.932709 -0.021198 13.374971 -1.312332 4.421578 19.014410 -27.234863 7.505636 3.894051 -54.425868 -6.050409 5.873310 8.681886 -31.454062 7.307629 -3.672942 -6.022338 -10.063058 29.838431 -3.912777 4.430962 57.419193 0.029761 12.114749 -12.310352 18.515984 -7.595682 3.075797 3.076556 -8.734251 
0.376031 0.136937 1.208993 102.748781 0.423173 75.614670 1.674424 -0.854250 12.578900 -15.862735 -17.127304 57.105531 2.464525 5.720694 -34.473898 0.000000 -0.000000 0.000000 -2.707772 -6.507012 -9.097761 1.704414 -9.629904 17.288432 9.050013 -9.275832 18.460828 0.000000 -0.000000 0.000000 -0.205294 -1.468182 13.593450 2.588230 -1.448586 1.284285 0.013329 -1.167716 3.227346 -0.523287 0.976598 13.857480 -1.938189 2.853195 19.443090 -27.114329 7.669580 3.553359 -54.437011 -4.973526 5.384254 8.898633 -29.907091 6.259846 -2.535521 -6.570026 -9.476757 30.034890 -3.980338 4.451133 57.352402 -0.256994 10.707228 -11.564051 17.851838 -6.249350 2.967702 3.379987 -8.615304 
0.407628 0.129991 1.192051 102.860445 0.924179 75.502436 3.147642 -0.797801 12.065894 -17.681713 -16.724738 63.095912 1.409297 5.613861 -30.980735 0.000000 -0.000000 0.000000 -1.461285 -5.157743 -7.224885 2.464882 -7.431718 19.466346 5.272478 -7.486887 6.640904 0.000000 -0.000000 0.000000 0.298736 -1.234645 13.239928 3.017104 -0.878720 1.179350 -0.785379 -1.104458 3.084262 1.587105 2.146824 13.214427 -3.252434 0.977980 20.017878 -27.085292 8.202986 3.161839 -53.956276 -4.719543 6.774100 7.813471 -28.109360 6.555060 1.612904 -5.645760 -12.338270 31.001444 -4.658219 3.166814 56.741318 -0.576521 10.910516 -12.069462 17.499893 -4.701029 4.539315 3.267837 -9.370381 
0.434695 0.124487 1.179204 102.156419 1.304105 74.737324 4.001563 -1.162554 10.061002 -18.124453 -13.758184 70.544863 -1.933311 3.480259 -21.985164 0.000000 -0.000000 0.000000 -0.530046 -4.132417 -6.478048 3.003748 -8.231086 23.155842 2.578399 -7.344145 0.265437 0.000000 -0.000000 0.000000 1.024679 -1.250128 14.361071 2.957453 -0.320118 1.157890 -1.102788 -0.833404 2.884881 2.060817 2.762968 12.051185 -3.525506 0.470566 20.601735 -27.887472 8.374349 2.235072 -53.831039 -3.839998 6.472249 8.624680 -27.133246 6.216664 0.161887 -5.212953 -11.136091 31.271718 -3.726163 2.940463 55.993324 0.467339 10.469418 -11.981326 16.851760 -3.700051 4.894912 3.114952 -9.773779 
0.456842 0.120298 1.170479 101.023145 1.324559 74.056723 4.205049 -1.290654 6.479256 -16.765868 -10.022996 77.661498 -4.687609 -0.343979 -10.755751 0.000000 -0.000000 0.000000 0.642450 -4.180208 -5.399784 2.284039 -8.875275 24.872628 -0.106386 -7.121388 -3.708341 0.000000 -0.000000 0.000000 1.723419 -0.914803 16.048995 2.489562 -0.188766 0.883711 -0.797771 -0.642258 2.137543 1.045760 2.600158 11.934113 -2.977323 1.484438 20.627437 -27.983175 7.460074 2.212507 -55.581957 -2.843565 4.834681 10.354268 -25.616355 4.265881 -3.647280 -5.226041 -9.052451 29.936199 -1.387081 4.059418 56.093497 2.113066 8.660224 -11.730913 16.451035 -4.483205 3.126193 2.859707 -8.889984 
0.475921 0.116957 1.166429 99.658666 1.043710 73.388263 3.860001 -1.706423 2.929753 -15.386043 -6.138716 83.687026 -6.323963 0.893973 -5.147940 0.000000 -0.000000 0.000000 1.582907 -3.533565 -3.083313 1.728191 -8.141535 24.128683 -1.696776 -6.926506 -7.181015 0.000000 -0.000000 0.000000 2.028155 0.090586 17.101937 2.299004 -0.140698 1.419004 -0.620504 -0.344332 1.670911 0.542519 1.935711 12.079668 -2.462933 2.330428 20.636299 -27.867815 5.785809 2.302493 -56.969091 -2.194139 4.763960 10.771217 -24.526293 3.267276 -3.655718 -4.663725 -8.436036 29.292945 1.014594 4.366122 55.506275 3.572363 7.638690 -12.450860 16.659760 -6.348178 3.270259 3.028491 -8.931895 
0.490264 0.115718 1.167827 98.317832 0.573554 73.088140 3.225930 -2.104325 -1.019133 -12.492670 -2.426074 88.626364 -5.585548 3.019815 -8.208685 0.000000 -0.000000 0.000000 1.872418 -3.398148 -1.823074 1.175691 -7.872950 24.058789 -1.443951 -6.457961 -7.852848 0.000000 -0.000000 0.000000 2.394983 1.120471 18.269422 2.146330 -0.070113 1.065433 -0.616967 -0.008600 1.558950 0.328484 1.350608 12.751094 -2.547191 2.829255 20.854475 -27.996437 4.595736 2.440405 -57.587128 -2.225889 4.776692 10.048131 -23.963221 5.038113 -6.766490 -4.533866 -7.043128 28.805947 2.269861 4.462027 54.435980 5.636711 7.151629 -13.296555 17.516195 -7.031421 3.704145 3.457776 -9.446037 
0.500912 0.116054 1.172734 97.409775 0.067039 73.203209 2.206187 -2.474921 -5.336196 -10.063290 0.090338 91.989793 -2.496431 3.439895 -12.891982 0.000000 -0.000000 0.000000 1.757712 -3.557882 -1.102498 1.037085 -6.803385 23.562861 -0.899280 -6.301617 -7.575874 0.000000 -0.000000 0.000000 2.855015 1.768714 19.225675 1.892376 -0.106060 0.432442 -0.760849 0.264311 1.798952 -0.217331 0.547284 12.874452 -2.445267 3.466802 21.030567 -28.225603 4.093978 2.716954 -57.895851 -2.539137 4.610842 9.533900 -24.972440 6.756078 -9.851206 -4.991470 -3.336616 27.899866 3.025661 4.441854 53.845002 7.524553 6.813523 -14.623004 20.166999 -8.489225 4.401129 3.741487 -8.487137 
0.509954 0.115699 1.178940 96.637134 -0.494669 73.373558 1.484503 -2.869390 -9.282094 -8.499429 2.038557 92.852838 -1.391424 4.010276 -15.920236 0.000000 -0.000000 0.000000 1.764839 -3.809333 0.297218 0.393615 -6.369502 21.501053 -0.521400 -5.488531 -7.258790 0.000000 -0.000000 0.000000 3.028525 2.821933 20.664868 1.701288 -0.322277 -0.781441 -0.588010 0.570407 1.886950 -0.546311 0.348356 12.819920 -2.309808 3.756024 20.774220 -27.903061 3.271967 2.908568 -58.469767 -1.832706 5.004577 8.636759 -27.281017 8.328971 -9.042418 -5.732797 -1.861452 26.747165 3.875734 4.329306 53.858912 8.119320 6.494217 -16.996081 24.245451 -10.436364 3.576339 4.745636 -9.181777 
0.517934 0.116427 1.184026 96.183061 -1.052681 73.761252 1.068630 -3.689435 -12.821357 -7.297156 3.617479 91.062099 -0.997406 4.373569 -17.878471 0.000000 -0.000000 0.000000 1.484093 -4.182503 2.073934 0.316161 -5.380974 18.355589 -0.324530 -5.177608 -6.847541 0.000000 -0.000000 0.000000 3.202387 3.597198 21.314909 1.483374 -0.792565 -0.897441 -0.592826 0.764624 1.916184 -1.001159 0.122098 11.993562 -1.826486 3.955624 20.349172 -27.502409 2.361692 3.356329 -58.862634 -1.590247 5.318318 8.110813 -29.661296 8.526839 -8.865326 -6.621369 -2.592728 25.695501 4.629450 4.285886 53.810946 8.783249 6.837140 -19.795183 29.004867 -11.829524 3.398226 5.044402 -9.653017 
0.524180 0.117107 1.188178 95.636641 -1.617019 74.755973 0.770213 -4.272839 -16.032095 -6.082453 4.447475 86.360234 -0.236783 4.917002 -17.475175 0.000000 -0.000000 0.000000 1.093964 -4.534947 2.135848 0.166857 -4.812335 16.821093 0.144163 -4.776204 -6.156759 0.000000 -0.000000 0.000000 3.350072 4.225630 21.706027 1.211542 -0.883340 -1.895875 -0.649558 0.987448 2.266756 -1.302392 0.221965 11.315417 -1.570817 3.952339 19.872538 -27.442795 2.284406 2.999263 -58.753734 -1.777234 5.706384 7.416837 -30.893989 8.496447 -8.283870 -6.997364 -3.106372 25.163088 4.545856 4.083574 53.316563 9.494941 7.205621 -22.201558 33.629566 -13.475022 2.609103 5.777442 -10.435140 
